<mxfile host="app.diagrams.net" modified="2024-01-10T11:35:57.230Z" agent="Mozilla/5.0 (Macintosh; Intel Mac OS X 10_15_7) AppleWebKit/537.36 (KHTML, like Gecko) Chrome/120.0.0.0 Safari/537.36" etag="X5z1RjPgYvu2LSr0IBOZ" version="22.1.18" type="github">
  <diagram name="第 1 页" id="VWUA1YRedTUWYf8spR-G">
    <mxGraphModel dx="1306" dy="860" grid="1" gridSize="10" guides="1" tooltips="1" connect="1" arrows="1" fold="1" page="1" pageScale="1" pageWidth="827" pageHeight="1169" math="0" shadow="0">
      <root>
        <mxCell id="0" />
        <mxCell id="1" parent="0" />
        <mxCell id="bbGn_wzRD8GRMt_y7WGP-4" value="" style="rounded=1;whiteSpace=wrap;html=1;" vertex="1" parent="1">
          <mxGeometry x="120" y="310" width="240" height="50" as="geometry" />
        </mxCell>
        <mxCell id="bbGn_wzRD8GRMt_y7WGP-8" value="&lt;font face=&quot;Helvetica&quot;&gt;全局M队列：runtime.allm&lt;/font&gt;" style="text;html=1;strokeColor=none;fillColor=none;align=center;verticalAlign=middle;whiteSpace=wrap;rounded=0;" vertex="1" parent="1">
          <mxGeometry x="120" y="280" width="110" height="30" as="geometry" />
        </mxCell>
        <mxCell id="bbGn_wzRD8GRMt_y7WGP-10" value="" style="rounded=1;whiteSpace=wrap;html=1;" vertex="1" parent="1">
          <mxGeometry x="440" y="310" width="240" height="50" as="geometry" />
        </mxCell>
        <mxCell id="bbGn_wzRD8GRMt_y7WGP-14" value="&lt;font face=&quot;Helvetica&quot;&gt;空闲M队列runtime.schedt.allm&lt;/font&gt;" style="text;html=1;strokeColor=none;fillColor=none;align=center;verticalAlign=middle;whiteSpace=wrap;rounded=0;" vertex="1" parent="1">
          <mxGeometry x="440" y="280" width="110" height="30" as="geometry" />
        </mxCell>
        <mxCell id="bbGn_wzRD8GRMt_y7WGP-15" value="" style="rounded=1;whiteSpace=wrap;html=1;" vertex="1" parent="1">
          <mxGeometry x="120" y="510" width="240" height="50" as="geometry" />
        </mxCell>
        <mxCell id="bbGn_wzRD8GRMt_y7WGP-16" value="G" style="ellipse;whiteSpace=wrap;html=1;aspect=fixed;fillColor=#60a917;fontColor=#ffffff;strokeColor=#2D7600;" vertex="1" parent="1">
          <mxGeometry x="130" y="515" width="40" height="40" as="geometry" />
        </mxCell>
        <mxCell id="bbGn_wzRD8GRMt_y7WGP-17" value="G" style="ellipse;whiteSpace=wrap;html=1;aspect=fixed;fillColor=#60a917;fontColor=#ffffff;strokeColor=#2D7600;" vertex="1" parent="1">
          <mxGeometry x="180" y="515" width="40" height="40" as="geometry" />
        </mxCell>
        <mxCell id="bbGn_wzRD8GRMt_y7WGP-18" value="G" style="ellipse;whiteSpace=wrap;html=1;aspect=fixed;fillColor=#60a917;fontColor=#ffffff;strokeColor=#2D7600;" vertex="1" parent="1">
          <mxGeometry x="230" y="515" width="40" height="40" as="geometry" />
        </mxCell>
        <mxCell id="bbGn_wzRD8GRMt_y7WGP-19" value="&lt;font face=&quot;Helvetica&quot;&gt;全局P队列&lt;br&gt;runtime.schedt.allp&lt;/font&gt;" style="text;html=1;strokeColor=none;fillColor=none;align=center;verticalAlign=middle;whiteSpace=wrap;rounded=0;" vertex="1" parent="1">
          <mxGeometry x="120" y="380" width="100" height="30" as="geometry" />
        </mxCell>
        <mxCell id="bbGn_wzRD8GRMt_y7WGP-20" value="" style="rounded=1;whiteSpace=wrap;html=1;" vertex="1" parent="1">
          <mxGeometry x="120" y="410" width="240" height="50" as="geometry" />
        </mxCell>
        <mxCell id="bbGn_wzRD8GRMt_y7WGP-21" value="P" style="whiteSpace=wrap;html=1;aspect=fixed;fillColor=#fa6800;strokeColor=#C73500;fontColor=#000000;" vertex="1" parent="1">
          <mxGeometry x="130" y="415" width="40" height="40" as="geometry" />
        </mxCell>
        <mxCell id="bbGn_wzRD8GRMt_y7WGP-23" value="P" style="whiteSpace=wrap;html=1;aspect=fixed;fillColor=#fa6800;fontColor=#000000;strokeColor=#C73500;" vertex="1" parent="1">
          <mxGeometry x="180" y="415" width="40" height="40" as="geometry" />
        </mxCell>
        <mxCell id="bbGn_wzRD8GRMt_y7WGP-24" value="P" style="whiteSpace=wrap;html=1;aspect=fixed;fillColor=#fa6800;fontColor=#000000;strokeColor=#C73500;" vertex="1" parent="1">
          <mxGeometry x="230" y="415" width="40" height="40" as="geometry" />
        </mxCell>
        <mxCell id="bbGn_wzRD8GRMt_y7WGP-25" value="空闲P队列runtime.schedt.pidle" style="text;html=1;strokeColor=none;fillColor=none;align=center;verticalAlign=middle;whiteSpace=wrap;rounded=0;" vertex="1" parent="1">
          <mxGeometry x="440" y="380" width="120" height="30" as="geometry" />
        </mxCell>
        <mxCell id="bbGn_wzRD8GRMt_y7WGP-26" value="" style="rounded=1;whiteSpace=wrap;html=1;" vertex="1" parent="1">
          <mxGeometry x="440" y="410" width="240" height="50" as="geometry" />
        </mxCell>
        <mxCell id="bbGn_wzRD8GRMt_y7WGP-27" value="P" style="whiteSpace=wrap;html=1;aspect=fixed;fillColor=#fa6800;strokeColor=#C73500;fontColor=#000000;" vertex="1" parent="1">
          <mxGeometry x="450" y="415" width="40" height="40" as="geometry" />
        </mxCell>
        <mxCell id="bbGn_wzRD8GRMt_y7WGP-28" value="P" style="whiteSpace=wrap;html=1;aspect=fixed;fillColor=#fa6800;fontColor=#000000;strokeColor=#C73500;" vertex="1" parent="1">
          <mxGeometry x="500" y="415" width="40" height="40" as="geometry" />
        </mxCell>
        <mxCell id="bbGn_wzRD8GRMt_y7WGP-31" value="M" style="rounded=0;whiteSpace=wrap;html=1;fillColor=#1ba1e2;fontColor=#ffffff;strokeColor=#006EAF;" vertex="1" parent="1">
          <mxGeometry x="140" y="315" width="60" height="40" as="geometry" />
        </mxCell>
        <mxCell id="bbGn_wzRD8GRMt_y7WGP-32" value="M" style="rounded=0;whiteSpace=wrap;html=1;fillColor=#1ba1e2;fontColor=#ffffff;strokeColor=#006EAF;" vertex="1" parent="1">
          <mxGeometry x="210" y="315" width="60" height="40" as="geometry" />
        </mxCell>
        <mxCell id="bbGn_wzRD8GRMt_y7WGP-33" value="M" style="rounded=0;whiteSpace=wrap;html=1;fillColor=#1ba1e2;fontColor=#ffffff;strokeColor=#006EAF;" vertex="1" parent="1">
          <mxGeometry x="280" y="315" width="60" height="40" as="geometry" />
        </mxCell>
        <mxCell id="bbGn_wzRD8GRMt_y7WGP-34" value="M" style="rounded=0;whiteSpace=wrap;html=1;fillColor=#1ba1e2;fontColor=#ffffff;strokeColor=#006EAF;" vertex="1" parent="1">
          <mxGeometry x="450" y="315" width="60" height="40" as="geometry" />
        </mxCell>
        <mxCell id="bbGn_wzRD8GRMt_y7WGP-35" value="M" style="rounded=0;whiteSpace=wrap;html=1;fillColor=#1ba1e2;fontColor=#ffffff;strokeColor=#006EAF;" vertex="1" parent="1">
          <mxGeometry x="520" y="315" width="60" height="40" as="geometry" />
        </mxCell>
        <mxCell id="bbGn_wzRD8GRMt_y7WGP-36" value="&lt;font face=&quot;Helvetica&quot;&gt;可运行G队列&lt;br&gt;runtime.schedt.runq&lt;/font&gt;" style="text;html=1;strokeColor=none;fillColor=none;align=center;verticalAlign=middle;whiteSpace=wrap;rounded=0;" vertex="1" parent="1">
          <mxGeometry x="120" y="480" width="110" height="30" as="geometry" />
        </mxCell>
        <mxCell id="bbGn_wzRD8GRMt_y7WGP-37" value="" style="rounded=1;whiteSpace=wrap;html=1;" vertex="1" parent="1">
          <mxGeometry x="440" y="510" width="240" height="50" as="geometry" />
        </mxCell>
        <mxCell id="bbGn_wzRD8GRMt_y7WGP-38" value="G" style="ellipse;whiteSpace=wrap;html=1;aspect=fixed;fillColor=#60a917;fontColor=#ffffff;strokeColor=#2D7600;" vertex="1" parent="1">
          <mxGeometry x="450" y="515" width="40" height="40" as="geometry" />
        </mxCell>
        <mxCell id="bbGn_wzRD8GRMt_y7WGP-39" value="G" style="ellipse;whiteSpace=wrap;html=1;aspect=fixed;fillColor=#60a917;fontColor=#ffffff;strokeColor=#2D7600;" vertex="1" parent="1">
          <mxGeometry x="500" y="515" width="40" height="40" as="geometry" />
        </mxCell>
        <mxCell id="bbGn_wzRD8GRMt_y7WGP-40" value="G" style="ellipse;whiteSpace=wrap;html=1;aspect=fixed;fillColor=#60a917;fontColor=#ffffff;strokeColor=#2D7600;" vertex="1" parent="1">
          <mxGeometry x="550" y="515" width="40" height="40" as="geometry" />
        </mxCell>
        <mxCell id="bbGn_wzRD8GRMt_y7WGP-41" value="&lt;font face=&quot;Helvetica&quot;&gt;空闲G队列&lt;br&gt;runtime.schedt.gfree&lt;/font&gt;" style="text;html=1;strokeColor=none;fillColor=none;align=center;verticalAlign=middle;whiteSpace=wrap;rounded=0;" vertex="1" parent="1">
          <mxGeometry x="440" y="480" width="110" height="30" as="geometry" />
        </mxCell>
        <mxCell id="bbGn_wzRD8GRMt_y7WGP-42" value="P1" style="whiteSpace=wrap;html=1;aspect=fixed;fillColor=#fa6800;fontColor=#000000;strokeColor=#C73500;" vertex="1" parent="1">
          <mxGeometry x="240" y="800" width="40" height="40" as="geometry" />
        </mxCell>
        <mxCell id="bbGn_wzRD8GRMt_y7WGP-48" value="P2" style="whiteSpace=wrap;html=1;aspect=fixed;fillColor=#fa6800;fontColor=#000000;strokeColor=#C73500;" vertex="1" parent="1">
          <mxGeometry x="400" y="800" width="40" height="40" as="geometry" />
        </mxCell>
        <mxCell id="bbGn_wzRD8GRMt_y7WGP-49" value="P3" style="whiteSpace=wrap;html=1;aspect=fixed;fillColor=#fa6800;fontColor=#000000;strokeColor=#C73500;" vertex="1" parent="1">
          <mxGeometry x="560" y="800" width="40" height="40" as="geometry" />
        </mxCell>
        <mxCell id="bbGn_wzRD8GRMt_y7WGP-50" value="线程" style="ellipse;whiteSpace=wrap;html=1;" vertex="1" parent="1">
          <mxGeometry x="225" y="980" width="70" height="40" as="geometry" />
        </mxCell>
        <mxCell id="bbGn_wzRD8GRMt_y7WGP-51" value="线程" style="ellipse;whiteSpace=wrap;html=1;" vertex="1" parent="1">
          <mxGeometry x="385" y="980" width="70" height="40" as="geometry" />
        </mxCell>
        <mxCell id="bbGn_wzRD8GRMt_y7WGP-52" value="线程" style="ellipse;whiteSpace=wrap;html=1;" vertex="1" parent="1">
          <mxGeometry x="545" y="980" width="70" height="40" as="geometry" />
        </mxCell>
        <mxCell id="bbGn_wzRD8GRMt_y7WGP-88" style="edgeStyle=orthogonalEdgeStyle;rounded=0;orthogonalLoop=1;jettySize=auto;html=1;entryX=0.5;entryY=0;entryDx=0;entryDy=0;" edge="1" parent="1" source="bbGn_wzRD8GRMt_y7WGP-57" target="bbGn_wzRD8GRMt_y7WGP-42">
          <mxGeometry relative="1" as="geometry" />
        </mxCell>
        <mxCell id="bbGn_wzRD8GRMt_y7WGP-57" value="" style="rounded=0;whiteSpace=wrap;html=1;" vertex="1" parent="1">
          <mxGeometry x="230" y="615" width="60" height="150" as="geometry" />
        </mxCell>
        <mxCell id="bbGn_wzRD8GRMt_y7WGP-64" style="edgeStyle=orthogonalEdgeStyle;rounded=0;orthogonalLoop=1;jettySize=auto;html=1;entryX=0.5;entryY=0;entryDx=0;entryDy=0;" edge="1" parent="1" source="bbGn_wzRD8GRMt_y7WGP-58" target="bbGn_wzRD8GRMt_y7WGP-50">
          <mxGeometry relative="1" as="geometry" />
        </mxCell>
        <mxCell id="bbGn_wzRD8GRMt_y7WGP-58" value="M1" style="rounded=0;whiteSpace=wrap;html=1;fillColor=#1ba1e2;fontColor=#ffffff;strokeColor=#006EAF;" vertex="1" parent="1">
          <mxGeometry x="230" y="880" width="60" height="40" as="geometry" />
        </mxCell>
        <mxCell id="bbGn_wzRD8GRMt_y7WGP-65" style="edgeStyle=orthogonalEdgeStyle;rounded=0;orthogonalLoop=1;jettySize=auto;html=1;" edge="1" parent="1" source="bbGn_wzRD8GRMt_y7WGP-59" target="bbGn_wzRD8GRMt_y7WGP-51">
          <mxGeometry relative="1" as="geometry" />
        </mxCell>
        <mxCell id="bbGn_wzRD8GRMt_y7WGP-59" value="M1" style="rounded=0;whiteSpace=wrap;html=1;fillColor=#1ba1e2;fontColor=#ffffff;strokeColor=#006EAF;" vertex="1" parent="1">
          <mxGeometry x="390" y="880" width="60" height="40" as="geometry" />
        </mxCell>
        <mxCell id="bbGn_wzRD8GRMt_y7WGP-66" style="edgeStyle=orthogonalEdgeStyle;rounded=0;orthogonalLoop=1;jettySize=auto;html=1;entryX=0.5;entryY=0;entryDx=0;entryDy=0;" edge="1" parent="1" source="bbGn_wzRD8GRMt_y7WGP-60" target="bbGn_wzRD8GRMt_y7WGP-52">
          <mxGeometry relative="1" as="geometry" />
        </mxCell>
        <mxCell id="bbGn_wzRD8GRMt_y7WGP-60" value="M1" style="rounded=0;whiteSpace=wrap;html=1;fillColor=#1ba1e2;fontColor=#ffffff;strokeColor=#006EAF;" vertex="1" parent="1">
          <mxGeometry x="550" y="880" width="60" height="40" as="geometry" />
        </mxCell>
        <mxCell id="bbGn_wzRD8GRMt_y7WGP-67" value="G" style="ellipse;whiteSpace=wrap;html=1;aspect=fixed;fillColor=#60a917;fontColor=#ffffff;strokeColor=#2D7600;" vertex="1" parent="1">
          <mxGeometry x="240" y="715" width="40" height="40" as="geometry" />
        </mxCell>
        <mxCell id="bbGn_wzRD8GRMt_y7WGP-68" value="G" style="ellipse;whiteSpace=wrap;html=1;aspect=fixed;fillColor=#60a917;fontColor=#ffffff;strokeColor=#2D7600;" vertex="1" parent="1">
          <mxGeometry x="240" y="665" width="40" height="40" as="geometry" />
        </mxCell>
        <mxCell id="bbGn_wzRD8GRMt_y7WGP-89" style="edgeStyle=orthogonalEdgeStyle;rounded=0;orthogonalLoop=1;jettySize=auto;html=1;entryX=0.5;entryY=0;entryDx=0;entryDy=0;" edge="1" parent="1" source="bbGn_wzRD8GRMt_y7WGP-73" target="bbGn_wzRD8GRMt_y7WGP-48">
          <mxGeometry relative="1" as="geometry" />
        </mxCell>
        <mxCell id="bbGn_wzRD8GRMt_y7WGP-73" value="" style="rounded=0;whiteSpace=wrap;html=1;" vertex="1" parent="1">
          <mxGeometry x="390" y="620" width="60" height="150" as="geometry" />
        </mxCell>
        <mxCell id="bbGn_wzRD8GRMt_y7WGP-74" value="G" style="ellipse;whiteSpace=wrap;html=1;aspect=fixed;fillColor=#60a917;fontColor=#ffffff;strokeColor=#2D7600;" vertex="1" parent="1">
          <mxGeometry x="400" y="720" width="40" height="40" as="geometry" />
        </mxCell>
        <mxCell id="bbGn_wzRD8GRMt_y7WGP-90" style="edgeStyle=orthogonalEdgeStyle;rounded=0;orthogonalLoop=1;jettySize=auto;html=1;entryX=0.5;entryY=0;entryDx=0;entryDy=0;" edge="1" parent="1" source="bbGn_wzRD8GRMt_y7WGP-76" target="bbGn_wzRD8GRMt_y7WGP-49">
          <mxGeometry relative="1" as="geometry" />
        </mxCell>
        <mxCell id="bbGn_wzRD8GRMt_y7WGP-76" value="" style="rounded=0;whiteSpace=wrap;html=1;" vertex="1" parent="1">
          <mxGeometry x="550" y="620" width="60" height="150" as="geometry" />
        </mxCell>
        <mxCell id="bbGn_wzRD8GRMt_y7WGP-77" value="G" style="ellipse;whiteSpace=wrap;html=1;aspect=fixed;fillColor=#60a917;fontColor=#ffffff;strokeColor=#2D7600;" vertex="1" parent="1">
          <mxGeometry x="560" y="720" width="40" height="40" as="geometry" />
        </mxCell>
        <mxCell id="bbGn_wzRD8GRMt_y7WGP-79" value="G" style="ellipse;whiteSpace=wrap;html=1;aspect=fixed;fillColor=#60a917;fontColor=#ffffff;strokeColor=#2D7600;" vertex="1" parent="1">
          <mxGeometry x="560" y="670" width="40" height="40" as="geometry" />
        </mxCell>
        <mxCell id="bbGn_wzRD8GRMt_y7WGP-80" value="P的本地队列&lt;br&gt;runtime.p.runq" style="text;html=1;strokeColor=none;fillColor=none;align=center;verticalAlign=middle;whiteSpace=wrap;rounded=0;" vertex="1" parent="1">
          <mxGeometry x="120" y="670" width="110" height="30" as="geometry" />
        </mxCell>
        <mxCell id="bbGn_wzRD8GRMt_y7WGP-81" value="G" style="ellipse;whiteSpace=wrap;html=1;aspect=fixed;fillColor=#60a917;fontColor=#ffffff;strokeColor=#2D7600;" vertex="1" parent="1">
          <mxGeometry x="400" y="670" width="40" height="40" as="geometry" />
        </mxCell>
        <mxCell id="bbGn_wzRD8GRMt_y7WGP-83" style="edgeStyle=orthogonalEdgeStyle;rounded=0;orthogonalLoop=1;jettySize=auto;html=1;entryX=0;entryY=0.5;entryDx=0;entryDy=0;" edge="1" parent="1" source="bbGn_wzRD8GRMt_y7WGP-82" target="bbGn_wzRD8GRMt_y7WGP-58">
          <mxGeometry relative="1" as="geometry" />
        </mxCell>
        <mxCell id="bbGn_wzRD8GRMt_y7WGP-82" value="G0" style="ellipse;whiteSpace=wrap;html=1;aspect=fixed;fillColor=#60a917;fontColor=#ffffff;strokeColor=#2D7600;" vertex="1" parent="1">
          <mxGeometry x="160" y="880" width="40" height="40" as="geometry" />
        </mxCell>
        <mxCell id="bbGn_wzRD8GRMt_y7WGP-85" style="edgeStyle=orthogonalEdgeStyle;rounded=0;orthogonalLoop=1;jettySize=auto;html=1;entryX=0;entryY=0.5;entryDx=0;entryDy=0;" edge="1" parent="1" source="bbGn_wzRD8GRMt_y7WGP-84" target="bbGn_wzRD8GRMt_y7WGP-59">
          <mxGeometry relative="1" as="geometry" />
        </mxCell>
        <mxCell id="bbGn_wzRD8GRMt_y7WGP-84" value="G0" style="ellipse;whiteSpace=wrap;html=1;aspect=fixed;fillColor=#60a917;fontColor=#ffffff;strokeColor=#2D7600;" vertex="1" parent="1">
          <mxGeometry x="320" y="880" width="40" height="40" as="geometry" />
        </mxCell>
        <mxCell id="bbGn_wzRD8GRMt_y7WGP-87" style="edgeStyle=orthogonalEdgeStyle;rounded=0;orthogonalLoop=1;jettySize=auto;html=1;entryX=0;entryY=0.5;entryDx=0;entryDy=0;" edge="1" parent="1" source="bbGn_wzRD8GRMt_y7WGP-86" target="bbGn_wzRD8GRMt_y7WGP-60">
          <mxGeometry relative="1" as="geometry" />
        </mxCell>
        <mxCell id="bbGn_wzRD8GRMt_y7WGP-86" value="G0" style="ellipse;whiteSpace=wrap;html=1;aspect=fixed;fillColor=#60a917;fontColor=#ffffff;strokeColor=#2D7600;" vertex="1" parent="1">
          <mxGeometry x="480" y="880" width="40" height="40" as="geometry" />
        </mxCell>
        <mxCell id="bbGn_wzRD8GRMt_y7WGP-91" value="" style="endArrow=classic;startArrow=classic;html=1;rounded=0;entryX=0.5;entryY=1;entryDx=0;entryDy=0;exitX=0.5;exitY=0;exitDx=0;exitDy=0;" edge="1" parent="1" source="bbGn_wzRD8GRMt_y7WGP-58" target="bbGn_wzRD8GRMt_y7WGP-42">
          <mxGeometry width="50" height="50" relative="1" as="geometry">
            <mxPoint x="390" y="900" as="sourcePoint" />
            <mxPoint x="440" y="850" as="targetPoint" />
          </mxGeometry>
        </mxCell>
        <mxCell id="bbGn_wzRD8GRMt_y7WGP-92" value="" style="endArrow=classic;startArrow=classic;html=1;rounded=0;entryX=0.5;entryY=1;entryDx=0;entryDy=0;exitX=0.5;exitY=0;exitDx=0;exitDy=0;" edge="1" parent="1" source="bbGn_wzRD8GRMt_y7WGP-59" target="bbGn_wzRD8GRMt_y7WGP-48">
          <mxGeometry width="50" height="50" relative="1" as="geometry">
            <mxPoint x="390" y="900" as="sourcePoint" />
            <mxPoint x="440" y="850" as="targetPoint" />
          </mxGeometry>
        </mxCell>
        <mxCell id="bbGn_wzRD8GRMt_y7WGP-93" value="" style="endArrow=classic;startArrow=classic;html=1;rounded=0;entryX=0.5;entryY=1;entryDx=0;entryDy=0;exitX=0.5;exitY=0;exitDx=0;exitDy=0;" edge="1" parent="1" source="bbGn_wzRD8GRMt_y7WGP-60" target="bbGn_wzRD8GRMt_y7WGP-49">
          <mxGeometry width="50" height="50" relative="1" as="geometry">
            <mxPoint x="390" y="900" as="sourcePoint" />
            <mxPoint x="440" y="850" as="targetPoint" />
          </mxGeometry>
        </mxCell>
        <mxCell id="bbGn_wzRD8GRMt_y7WGP-94" value="" style="endArrow=none;dashed=1;html=1;rounded=0;" edge="1" parent="1">
          <mxGeometry width="50" height="50" relative="1" as="geometry">
            <mxPoint x="680" y="960" as="sourcePoint" />
            <mxPoint x="120" y="960" as="targetPoint" />
          </mxGeometry>
        </mxCell>
        <mxCell id="bbGn_wzRD8GRMt_y7WGP-96" value="" style="endArrow=none;dashed=1;html=1;rounded=0;" edge="1" parent="1">
          <mxGeometry width="50" height="50" relative="1" as="geometry">
            <mxPoint x="680" y="1040" as="sourcePoint" />
            <mxPoint x="120" y="1040" as="targetPoint" />
          </mxGeometry>
        </mxCell>
        <mxCell id="bbGn_wzRD8GRMt_y7WGP-97" value="" style="endArrow=none;dashed=1;html=1;rounded=0;" edge="1" parent="1">
          <mxGeometry width="50" height="50" relative="1" as="geometry">
            <mxPoint x="680" y="590" as="sourcePoint" />
            <mxPoint x="120" y="590" as="targetPoint" />
          </mxGeometry>
        </mxCell>
        <mxCell id="bbGn_wzRD8GRMt_y7WGP-98" value="" style="endArrow=none;dashed=1;html=1;rounded=0;" edge="1" parent="1">
          <mxGeometry width="50" height="50" relative="1" as="geometry">
            <mxPoint x="120" y="1040" as="sourcePoint" />
            <mxPoint x="120" y="590" as="targetPoint" />
          </mxGeometry>
        </mxCell>
        <mxCell id="bbGn_wzRD8GRMt_y7WGP-99" value="" style="endArrow=none;dashed=1;html=1;rounded=0;" edge="1" parent="1">
          <mxGeometry width="50" height="50" relative="1" as="geometry">
            <mxPoint x="680" y="1040" as="sourcePoint" />
            <mxPoint x="680" y="590" as="targetPoint" />
          </mxGeometry>
        </mxCell>
        <mxCell id="bbGn_wzRD8GRMt_y7WGP-100" value="内核空间" style="text;html=1;strokeColor=none;fillColor=none;align=center;verticalAlign=middle;whiteSpace=wrap;rounded=0;" vertex="1" parent="1">
          <mxGeometry x="40" y="985" width="60" height="30" as="geometry" />
        </mxCell>
        <mxCell id="bbGn_wzRD8GRMt_y7WGP-101" value="用户空间" style="text;html=1;strokeColor=none;fillColor=none;align=center;verticalAlign=middle;whiteSpace=wrap;rounded=0;" vertex="1" parent="1">
          <mxGeometry x="40" y="760" width="60" height="30" as="geometry" />
        </mxCell>
      </root>
    </mxGraphModel>
  </diagram>
</mxfile>
